<svg xmlns="http://www.w3.org/2000/svg" width="17" height="19" viewBox="0 0 17 19" fill="none">
  <path d="M7.28614 17.5544C7.81724 18.0974 8.68945 18.1072 9.2325 17.5761L16.1836 10.778C16.7267 10.2469 16.7364 9.3747 16.2053 8.83165C15.6742 8.28859 14.802 8.27888 14.2589 8.80998L8.28965 14.6478L2.45179 8.68283C1.92069 8.13978 1.04848 8.13007 0.50542 8.66117C-0.0376352 9.19226 -0.0473452 10.0645 0.483752 10.6075L7.28179 17.5586L7.28614 17.5544ZM0.579937 2.35379L7.37798 9.3049C7.90907 9.84795 8.78129 9.85766 9.32434 9.32657L16.2754 2.52852C16.8185 1.99743 16.8282 1.12522 16.2971 0.582161C15.766 0.0391055 14.8938 0.0293956 14.3508 0.560493L8.38149 6.39831L2.54362 0.433346C2.01253 -0.109709 1.14031 -0.119419 0.597258 0.411678C0.0542029 0.942775 0.044493 1.81499 0.57559 2.35804L0.579937 2.35379Z" fill="#F4F4F5"/>
</svg>